# xmcd
#
# Track frame offsets: 
#        150
#        13815
#        27892
#        42689
#        65834
#        88288
#
# Disc length: 1474 seconds
#
# Revision: 0
# Processed by: cddbd v1.5.2PL0 Copyright (c) Steve Scherf et al.
# Submitted via: ExactAudioCopy v1.0b1
#
DISCID=5405c006
DTITLE=Little Dragon - Twice Remix EP
DYEAR=2008
DGENRE=Electronic
TTITLE0=Twice (Aaron Jerome Remix Radio Edit)
TTITLE1=Twice (Original)
TTITLE2=Recommendation (Toddla T Remix)
TTITLE3=Twice (Blood Or Money Remix)
TTITLE4=Twice (Aaron Jerome Remix)
TTITLE5=Twice (Aaron Jerome Remix Instrumental)
EXTD=
EXTT0=
EXTT1=
EXTT2=
EXTT3=
EXTT4=
EXTT5=
PLAYORDER=
